<svg width="41" height="41" viewBox="0 0 41 41" fill="none" xmlns="http://www.w3.org/2000/svg">
<g clip-path="url(#clip0_30_240)">
<path d="M15.6395 36.1068C15.6394 36.1175 15.6387 36.1281 15.6387 36.1388C15.6387 38.8236 17.8151 41 20.4998 41C23.1846 41 25.361 38.8236 25.361 36.1388C25.361 36.1281 25.3603 36.1175 25.3602 36.1068H15.6395Z" fill="black"/>
<path d="M36.0206 30.0303L31.6455 23.6035C31.6455 21.6361 31.6455 16.8288 31.6455 15.5853C31.6455 10.1778 27.7945 5.6704 22.6855 4.65462V2.18552C22.6854 0.978554 21.707 0 20.4999 0C19.2929 0 18.3144 0.978554 18.3144 2.18552V4.65471C13.2054 5.67058 9.35441 10.178 9.35441 15.5854C9.35441 17.7022 9.35441 22.3766 9.35441 23.6036L4.97935 30.0304C4.5185 30.7074 4.46977 31.5836 4.85269 32.3075C5.23562 33.0314 5.98736 33.4842 6.80632 33.4842H34.1935C35.0125 33.4842 35.7642 33.0313 36.1471 32.3075C36.5301 31.5836 36.4813 30.7073 36.0206 30.0303Z" fill="black"/>
</g>
<defs>
</defs>
</svg>
