<svg width="61" height="61" viewBox="0 0 61 61" fill="none" xmlns="http://www.w3.org/2000/svg">
<g clip-path="url(#clip0_1_19)">
<path d="M47.4455 16.9447C47.4455 26.3026 39.8586 33.8886 30.5 33.8886C21.1421 33.8886 13.5557 26.3026 13.5557 16.9447C13.5557 7.58676 21.1421 0 30.5 0C39.8586 0 47.4455 7.58687 47.4455 16.9447Z" fill="#E45D73"/>
<path d="M47.4455 44.0546C47.4455 53.4132 39.8586 61 30.5 61C21.1421 61 13.5557 53.4132 13.5557 44.0546C13.5557 34.6974 21.1421 27.1114 30.5 27.1114C39.8586 27.1114 47.4455 34.6974 47.4455 44.0546Z" fill="#EC707F"/>
<path d="M16.9443 13.5546C26.3026 13.5546 33.8886 21.1407 33.8886 30.4993C33.8886 39.8572 26.3026 47.4439 16.9443 47.4439C7.58687 47.4441 0 39.8572 0 30.4993C0 21.1407 7.58687 13.5546 16.9443 13.5546Z" fill="#E45D73"/>
<path d="M44.0544 13.5546C53.4131 13.5546 60.9999 21.1407 60.9999 30.4993C60.9999 39.8572 53.4131 47.4439 44.0544 47.4439C34.6974 47.4439 27.1113 39.8571 27.1113 30.4993C27.1113 21.1407 34.6974 13.5546 44.0544 13.5546Z" fill="#EC707F"/>
<path d="M48.8599 46.7504C49.1295 45.1832 49.1707 43.5513 48.9676 41.8885C47.8372 32.6666 39.5005 26.0941 30.2908 27.1166C30.3618 27.1166 30.4283 27.1113 30.5001 27.1113C39.8603 27.1113 47.4425 34.7004 47.4425 44.0537C47.4425 45.1114 47.3471 46.1463 47.1614 47.1513L48.8599 46.7504Z" fill="#D5637B"/>
<path d="M47.1492 13.8341C46.1511 13.6493 45.1162 13.5538 44.0577 13.5538C34.6975 13.5538 27.1092 21.1421 27.1092 30.5024C27.1092 30.5673 27.1153 30.639 27.1153 30.7109C26.0979 21.5011 32.6714 13.1582 41.8865 12.0287C43.5498 11.8255 45.1819 11.8668 46.7483 12.1364L47.1492 13.8341Z" fill="#C85A71"/>
<path d="M13.8382 13.8471C13.6531 14.8506 13.5575 15.8862 13.5575 16.9448C13.5575 26.3034 21.1399 33.8872 30.4999 33.8872C30.5717 33.8872 30.6381 33.8872 30.7092 33.8872C21.4994 34.9037 13.1627 28.331 12.0324 19.1091C11.8289 17.4465 11.871 15.8144 12.1397 14.2472L13.8382 13.8471Z" fill="#C85A71"/>
<path d="M14.2514 48.8615C15.8187 49.1311 17.4503 49.1723 19.1129 48.9691C28.3287 47.8388 34.902 39.496 33.8848 30.2922C33.8848 30.3579 33.8909 30.4297 33.8909 30.5023C33.8909 39.8547 26.3026 47.4447 16.9424 47.4447C15.8831 47.4447 14.8493 47.3485 13.8508 47.1637L14.2514 48.8615Z" fill="#D5637B"/>
<path d="M39.2713 30.5008C39.2713 35.3444 35.3434 39.2715 30.4999 39.2715C25.6556 39.2715 21.7285 35.3444 21.7285 30.5008C21.7285 25.6566 25.6556 21.7287 30.4999 21.7287C35.3434 21.7286 39.2713 25.6565 39.2713 30.5008Z" fill="#F3E39C"/>
<path d="M36.1798 23.8236C37.4834 25.3542 38.2739 27.3353 38.2739 29.5042C38.2739 34.3478 34.3468 38.2748 29.5034 38.2748C27.3351 38.2748 25.3532 37.4844 23.8228 36.1806C25.4319 38.0692 27.8239 39.2715 30.5 39.2715C35.3435 39.2715 39.2714 35.3444 39.2714 30.5008C39.2714 27.8247 38.0692 25.4327 36.1798 23.8236Z" fill="#E8D276"/>
</g>
<defs>
<clipPath id="clip0_1_19">
<rect width="61" height="61" fill="white"/>
</clipPath>
</defs>
</svg>
