<svg width="41" height="41" viewBox="0 0 47 35" fill="none" xmlns="http://www.w3.org/2000/svg">
<path d="M23.4084 36.226C25.6115 36.226 27.4291 34.6471 27.8146 32.5541H19.0021C19.3877 34.6471 21.2053 36.226 23.4084 36.226ZM38.0959 25.1736C36.5354 23.6131 34.6076 22.8603 34.6076 15.2963C34.6076 9.7334 30.5502 5.1252 25.2443 4.24395H24.9689C25.2994 3.87676 25.5197 3.38105 25.5197 2.83027C25.5197 1.67363 24.5834 0.737305 23.4268 0.737305C22.2701 0.737305 21.3338 1.67363 21.3338 2.83027C21.3338 3.38105 21.5357 3.87676 21.8846 4.24395H21.5908C16.285 5.1252 12.2275 9.7334 12.2275 15.2963C12.2275 22.8603 10.2998 23.6131 8.73926 25.1736C6.59121 27.285 8.09668 30.9201 11.0893 30.9201H35.7275C38.7201 30.9201 40.2256 27.285 38.0959 25.1736ZM1.98301 13.1482C1.98301 15.8104 2.95605 18.3807 4.75527 20.4553L3.50684 21.7037C1.39551 19.4271 0.202148 16.3611 0.202148 13.2033C0.202148 10.0271 1.41387 6.96113 3.54355 4.72129L4.79199 5.96973C2.95605 7.98926 1.98301 10.4678 1.98301 13.1482ZM5.14082 13.2033C5.14082 11.3123 5.80176 9.56816 7.0502 8.09941L8.29863 9.34785C7.39902 10.4494 6.94004 11.7529 6.94004 13.1666C6.94004 14.5803 7.41738 15.9205 8.29863 16.9853L7.0502 18.2338C5.80176 16.8385 5.14082 15.076 5.14082 13.2033ZM42.2268 5.96973L43.4752 4.72129C45.6049 6.96113 46.8166 10.0088 46.8166 13.2033C46.8166 16.3611 45.6232 19.4271 43.5119 21.7037L42.2635 20.4553C44.0443 18.399 45.0357 15.8287 45.0357 13.1482C45.0357 10.4678 44.0627 7.98926 42.2268 5.96973ZM39.9869 18.2154L38.7385 16.967C39.6197 15.9021 40.0971 14.5619 40.0971 13.1482C40.0971 11.7529 39.6197 10.4311 38.7385 9.32949L39.9869 8.08105C41.2354 9.5498 41.8963 11.2939 41.8963 13.185C41.8963 15.076 41.217 16.8385 39.9869 18.2154Z" fill="black"/>
</svg>
